<?xml version="1.0" encoding="UTF-8"?>
<!DOCTYPE svg PUBLIC "-//W3C//DTD SVG 1.1//EN" "http://www.w3.org/Graphics/SVG/1.1/DTD/svg11.dtd">
<!-- Creator: CorelDRAW X6 -->
<svg xmlns="http://www.w3.org/2000/svg" xml:space="preserve" width="264px" height="106px" version="1.1" style="shape-rendering:geometricPrecision; text-rendering:geometricPrecision; image-rendering:optimizeQuality; fill-rule:evenodd; clip-rule:evenodd"
viewBox="0 0 63 25"
 xmlns:xlink="http://www.w3.org/1999/xlink">
 <defs>
  <style type="text/css">
   <![CDATA[
    .fil2 {fill:#E31E24}
    .fil3 {fill:#FEFEFE}
    .fil1 {fill:#E31E24;fill-rule:nonzero}
    .fil0 {fill:#FEFEFE;fill-rule:nonzero}
   ]]>
  </style>
 </defs>
 <g id="Слой_x0020_1">
  <metadata id="CorelCorpID_0Corel-Layer"/>
  <path class="fil0" d="M24 8c0,2 1,3 3,3 1,0 2,-1 3,-2 0,0 -1,0 -1,0 0,1 -1,1 -1,1 -1,0 -1,-1 -1,-1 0,-1 1,-2 1,-2 1,0 1,0 1,1 0,0 1,0 1,0 0,-1 -1,-2 -3,-2 -1,0 -3,1 -3,3z"/>
  <path class="fil0" d="M34 11l1 0 0 0 -2 -5 -1 0 -2 5 0 0 1 0 0 -1 2 0 0 1zm-1 -2l-1 0 1 -1 1 1z"/>
  <path class="fil0" d="M39 9c1,-1 1,-3 -1,-3 -1,0 -2,0 -2,0 0,2 0,4 0,5 0,0 1,0 1,0l0 -2 1 0 1 2 2 0 0 0 -1 -2zm-1 -1l-1 0c0,0 0,-1 0,-1 0,0 1,0 1,0 1,0 1,1 0,1z"/>
  <path class="fil0" d="M45 6c-1,0 -2,0 -3,0 0,2 0,4 0,5 1,0 2,0 3,0 0,0 0,-1 0,-1 -1,0 -1,0 -2,0 0,0 0,-1 0,-1l2 0c0,0 0,-1 0,-1l-2 0 0 -1c1,0 1,0 2,0 0,0 0,-1 0,-1z"/>
  <path class="fil0" d="M49 6c-1,0 -2,0 -3,0 0,2 0,4 0,5 1,0 2,0 3,0 0,0 0,-1 0,-1 -1,0 -1,0 -2,0 0,0 0,-1 0,-1l2 0c0,0 0,-1 0,-1l-2 0 0 -1c1,0 1,0 2,0 0,0 0,-1 0,-1z"/>
  <path class="fil0" d="M29 14c0,0 -1,0 -1,0l0 2 -2 0 0 -2c0,0 -1,0 -1,0l0 5c0,0 1,0 1,0l0 -2 2 0 0 2c0,0 1,0 1,0l0 -5z"/>
  <path class="fil0" d="M32 18c0,0 -1,0 -1,-1l0 -4c0,0 -1,0 -1,0l0 4c0,1 1,2 2,2 1,0 2,-1 2,-2l0 -4c0,0 -1,0 -1,0l0 4c0,0 0,1 -1,1z"/>
  <path class="fil0" d="M40 19l0 0 0 -5c0,0 -1,0 -1,0l0 3 -3 -3 -1 0 0 5c0,0 1,0 1,0l0 -3 3 3z"/>
  <path class="fil0" d="M43 15l0 4c0,0 1,0 1,0l0 -4 1 0c0,0 0,-1 0,-1l-4 0c0,0 0,1 0,1l1 0z"/>
  <path class="fil0" d="M49 14c-1,0 -2,0 -3,0 0,2 0,4 0,5 1,0 2,0 3,0 0,0 0,-1 0,-1 -1,0 -1,0 -2,0 0,0 0,-1 0,-1l2 0c0,0 0,-1 0,-1l-2 0 0 -1c1,0 1,0 2,0 0,0 0,-1 0,-1z"/>
  <path class="fil0" d="M59 17c0,0 -1,0 -1,0 0,2 4,2 4,0 0,-1 -1,-1 -2,-2 0,0 -1,0 -1,-1 0,-1 1,-1 1,0 0,0 1,0 1,0 0,-2 -4,-2 -4,0 0,1 1,2 2,2 1,0 1,0 1,0 0,1 -2,1 -2,0z"/>
  <path class="fil1" d="M25 23c0,0 0,0 0,0 0,0 0,0 0,0l0 0 0 0zm0 0l0 0 1 0 0 0 -1 0 0 1 1 0c1,0 1,-1 0,-1l0 0z"/>
  <polygon id="1" class="fil1" points="26,23 26,24 27,24 27,24 26,22 26,22 25,24 25,24 26,24 "/>
  <path id="2" class="fil1" d="M28 22c0,0 -1,0 -1,0 0,0 0,1 0,1 0,0 1,0 1,0 0,0 0,0 0,0 0,0 0,0 0,0 0,0 0,0 0,0l0 0c0,0 0,0 0,0l0 0 0 0c0,0 0,0 0,0 0,0 0,0 0,0z"/>
  <path id="3" class="fil1" d="M28 23c0,0 0,1 1,1 0,0 1,0 1,-1 0,0 0,0 0,0 0,0 0,0 0,0 0,0 0,0 0,0 0,0 0,0 0,0 0,0 0,0 0,0 0,0 0,0 0,0 0,0 0,0 -1,0 0,0 -1,0 -1,1z"/>
  <path id="4" class="fil1" d="M30 23l0 1c0,0 0,0 0,0l0 -1 0 0c0,0 0,0 0,0l-1 0c0,0 0,0 0,0l0 0z"/>
  <path id="5" class="fil1" d="M30 24l0 0 0 0 0 0 0 0 0 0c0,0 0,0 0,0 0,0 0,-1 0,-1 0,0 0,0 -1,0 -1,0 -1,1 0,1l0 0zm1 -1c0,0 0,0 0,0 0,0 0,0 0,0 0,0 0,0 0,0l0 0z"/>
  <polygon id="6" class="fil1" points="32,24 33,24 33,24 34,24 34,23 33,23 33,22 33,22 33,23 33,23 33,22 32,22 32,23 32,23 32,22 32,22 "/>
  <path id="7" class="fil1" d="M35 22c0,0 -1,0 -1,0 0,0 0,1 0,1 0,0 1,0 1,0 0,0 0,0 0,0 0,0 0,0 0,0 0,0 0,0 0,0l0 0c0,0 0,0 0,0l0 0 0 0c0,0 0,0 0,0 0,0 0,0 0,0z"/>
  <path id="8" class="fil1" d="M36 22c0,0 -1,0 -1,0 0,0 0,1 0,1 0,0 1,0 1,0 0,0 0,0 0,0 0,0 0,0 0,0 0,0 0,0 0,0l0 0c0,0 0,0 0,0l0 0 0 0c0,0 0,0 0,0 0,0 0,0 0,0z"/>
  <path id="9" class="fil1" d="M38 22c0,0 0,0 0,0l0 0 0 0 0 0c0,0 0,0 0,0l0 1c0,0 0,0 0,0l0 -1 0 0 0 1c0,0 0,0 0,0l0 -1z"/>
  <path id="10" class="fil1" d="M39 24l0 0 0 0 -1 -1 0 0 -1 1 0 0 0 0 0 0 1 0 0 0zm0 0l0 0 0 0 0 0z"/>
  <path id="11" class="fil1" d="M41 24l0 -1 0 0 0 1 0 0c0,0 0,0 0,0l0 0 0 0 0 0c0,0 0,1 1,1l0 0 0 0 0 0z"/>
  <path id="12" class="fil1" d="M42 24l0 0 0 0 -1 -1 0 0 -1 1 0 0 0 0 0 0 1 0 0 0zm0 0l0 0 0 0 0 0z"/>
  <polygon id="13" class="fil1" points="43,23 43,24 43,24 43,24 43,22 43,22 42,24 42,24 42,24 "/>
  <path id="14" class="fil1" d="M45 23c0,-1 -1,-1 -1,0 0,1 1,1 1,0zm-1 0c0,0 1,0 1,0 0,0 -1,0 -1,0z"/>
  <path id="15" class="fil1" d="M47 23c0,0 0,0 0,0l-1 0 0 1 1 0c0,0 0,0 0,0 0,0 0,0 0,0 0,0 0,0 0,0zm0 0c0,0 0,0 0,0l0 0 0 0 0 0zm0 0c0,0 0,0 0,0l0 0 0 0 0 0z"/>
  <path id="16" class="fil1" d="M48 24l0 0 0 0 -1 -1 0 0 -1 1 0 0 0 0 0 0 1 0 0 0zm0 0l0 0 0 0 0 0z"/>
  <polygon id="17" class="fil1" points="49,24 50,24 50,22 50,22 50,23 50,23 50,22 49,22 49,23 49,23 49,22 49,22 "/>
  <path id="18" class="fil1" d="M51 22c0,0 -1,0 -1,0 0,0 0,1 0,1 0,0 1,0 1,0 0,0 0,0 0,0 0,0 0,0 0,0 0,0 0,0 0,0l0 0c0,0 0,0 0,0l0 0 0 0c0,0 0,0 0,0 0,0 0,0 0,0z"/>
  <path id="19" class="fil1" d="M52 24l0 0 0 -1c0,0 0,0 0,0l0 1 1 -1 0 0 0 1c0,0 0,0 0,0l0 -1 -1 1zm0 -2c0,0 0,0 0,0 0,0 0,0 0,0 0,0 0,0 0,0 0,0 0,0 0,0 0,0 0,0 0,0 0,0 0,0 0,0l0 0z"/>
  <path id="20" class="fil1" d="M55 24l0 0c0,0 0,0 0,0l0 1 0 0 0 0 0 -1c0,0 0,0 0,-1 0,0 0,0 0,0 0,0 0,0 0,0l0 0 0 0c0,0 0,0 0,0l0 1c0,0 0,0 0,0z"/>
  <path id="21" class="fil1" d="M56 24l0 0 0 0 -1 -1 0 0 -1 1 0 0 0 0 0 0 1 0 0 0zm0 0l0 0 0 0 0 0z"/>
  <path id="22" class="fil1" d="M57 24l0 0 0 0c1,0 1,-1 0,-1 0,0 0,0 -1,0 0,0 0,1 0,1 0,0 0,0 0,0zm0 -1l0 0c0,0 0,0 0,0 0,0 0,0 0,0 0,0 0,0 0,0z"/>
  <path id="23" class="fil1" d="M58 22c0,0 0,0 0,0 0,0 0,1 0,1 0,0 0,0 1,0 1,0 1,-1 0,-1l0 0 0 0zm0 1c0,0 0,0 0,0 0,0 0,0 0,0 0,0 0,0 0,0l0 0z"/>
  <path id="24" class="fil1" d="M60 22c0,0 -1,0 -1,0 0,0 0,1 0,1 0,0 1,0 1,0 0,0 0,0 0,0 0,0 0,0 0,0 0,0 0,0 0,0l0 0c0,0 0,0 0,0l0 0 0 0c0,0 0,0 0,0 0,0 0,0 0,0z"/>
  <path id="25" class="fil1" d="M61 24l0 0 0 0c1,0 1,-1 0,-1 0,0 0,0 -1,0 0,0 0,1 0,1 0,0 0,0 0,0zm0 -1l0 0c0,0 0,0 0,0 0,0 0,0 0,0 0,0 0,0 0,0z"/>
  <path id="26" class="fil1" d="M62 22l0 1 1 0c1,0 1,-1 0,-1l0 0 0 0 0 0zm1 1c0,0 0,0 0,0 0,0 0,0 0,0l0 0 0 0zm1 1l0 0 0 -1 0 0 0 1z"/>
  <rect class="fil2" x="24" y="21" width="39.1277" height="0.884272"/>
  <path class="fil3" d="M56 11c0,0 0,0 0,0 0,0 0,0 0,0zm-5 0c0,0 1,0 1,0 0,0 0,0 0,0 0,0 0,0 -1,0 0,0 0,0 0,0l0 0zm0 -2c0,0 0,0 0,0 0,0 0,0 0,0 0,0 0,1 0,1 0,0 0,1 0,1 0,0 0,0 0,0 0,0 0,-1 0,-1 0,0 0,0 0,0 0,0 0,0 0,0 0,0 0,0 0,0zm5 1c0,-1 0,-1 0,-2 0,0 0,0 0,0 0,0 0,0 1,1 0,0 -1,1 -1,1 0,0 0,0 -1,0l0 -1zm-1 -4l0 0c0,0 0,0 0,0 0,0 0,2 0,2l0 -1c0,0 0,0 0,-1 0,0 0,0 0,0zm0 0c0,0 0,0 0,0 0,0 0,0 1,0 0,0 0,1 0,1 0,0 0,0 0,0zm-3 7c0,0 0,0 0,0 0,0 0,1 0,1 0,0 0,1 0,1 0,0 0,1 0,1 0,1 0,2 0,3 0,0 0,1 0,1 0,0 0,0 0,1 0,0 1,0 1,0 0,0 0,0 0,0 0,0 0,0 0,0 0,-1 0,-1 0,-1 0,-1 0,-2 0,-3 0,-1 0,-1 0,-1 0,0 0,-1 0,-1 0,0 0,0 0,0l0 0 0 1c0,1 1,2 1,3 0,0 0,3 0,3 0,0 0,0 0,1 0,0 0,0 0,0 0,0 0,0 0,0 0,0 0,0 1,0 0,0 0,0 0,-1 0,0 0,0 0,0 0,0 0,0 0,-1l0 0c0,0 0,0 0,-1l0 -3c0,0 0,-1 0,-1 0,-1 0,0 0,-2 0,0 0,-1 0,-1 0,0 0,0 0,0 0,0 0,0 0,0l0 -1c0,0 0,0 0,0 0,0 0,0 1,-1 0,0 0,0 0,0 0,0 0,0 0,0 0,0 0,0 0,0 0,0 0,0 -1,-1 0,0 0,0 0,0l0 0c0,0 0,0 0,0 0,0 1,0 1,0 0,0 0,0 0,0 0,0 1,-2 1,-2 0,0 0,0 0,0 0,0 0,0 0,0 0,0 0,0 0,0 0,0 0,0 0,-1 0,0 0,0 0,0 0,0 0,0 0,0 0,0 -1,0 -1,0 -1,0 -1,-1 -1,-1 0,0 0,0 0,-1 0,0 0,0 0,-1 0,0 -1,0 -1,0 0,0 0,1 0,2 0,0 0,0 0,1l1 1c0,0 0,0 0,0 0,0 0,0 0,0 0,0 0,1 0,1 0,0 0,-1 0,-1l0 0c0,0 0,0 0,0l0 0c0,0 0,-1 0,-1 0,0 0,0 -1,0 -1,0 -1,0 -1,1l0 0c0,1 0,0 -1,1 0,1 -1,1 -1,2l0 1c0,0 0,0 0,1l0 0 0 0 0 0c0,0 0,0 0,0 0,0 0,0 0,0 0,0 0,0 0,0l0 1z"/>
  <path class="fil2" d="M10 7l0 2c1,0 3,0 4,1 1,1 1,1 2,2 1,2 1,4 -1,6l0 1c0,0 0,0 -1,1 0,0 0,0 0,0 -1,1 -2,1 -3,1l0 2c0,0 1,0 1,1 1,0 2,0 3,-1 0,0 1,0 1,0 0,0 0,0 0,-1 0,0 0,0 1,0 0,0 0,0 0,0 0,0 0,0 0,0l2 -2 0 -1c0,0 0,0 0,0 0,0 0,0 0,-1 0,0 0,0 1,0 0,0 1,-3 1,-3 -1,0 -1,-1 0,-1 0,0 0,0 0,0 0,0 0,0 0,0 0,0 0,0 0,0 0,-1 0,-2 -1,-3 0,0 0,0 0,-1 -1,0 -1,-1 -1,-1 0,0 -1,-1 -1,-1 0,0 0,0 0,0 0,0 0,0 0,0l-1 -1c0,0 0,0 -1,0 0,0 0,-1 0,-1 0,0 -1,0 -2,-1 -1,0 -1,0 -2,0 0,0 0,0 0,0 0,0 0,0 -1,0z"/>
  <path class="fil3" d="M6 7c1,0 1,-1 2,-1 1,0 2,0 2,0l0 0c0,0 0,0 0,0l0 0c1,0 2,0 2,0 0,0 2,1 2,1 0,0 0,0 0,1 0,0 0,0 0,0 0,0 2,1 2,2 0,0 1,1 1,1 0,0 -1,0 0,1 0,0 0,0 1,0 0,1 1,1 1,2 0,1 0,1 0,2 0,0 -1,0 -1,0 0,0 0,0 1,0 0,1 0,2 0,2 0,1 0,1 -1,2 0,0 -1,0 -1,0 0,0 0,0 0,0 0,0 0,1 -1,1l0 0c0,0 -2,2 -2,2 0,0 0,-1 -1,0 0,0 0,0 0,1 0,0 -1,1 -2,1 -1,0 -2,0 -2,0 0,0 0,0 0,-1l0 0c0,0 0,0 0,1 -1,0 -2,0 -2,0 0,0 -2,-1 -2,-1 0,0 0,0 0,-1 0,0 0,0 -1,0 0,0 -1,-1 -1,-1 0,0 -1,-1 -2,-2 0,0 0,0 0,0 0,0 0,0 0,0 0,0 0,0 -1,0 0,-1 -1,-1 -1,-2 0,-1 0,-2 0,-2 0,0 1,0 1,0 0,0 0,0 -1,0 0,-2 0,-3 1,-4 0,0 0,0 1,0 0,0 0,0 0,-1 0,0 0,-1 1,-1 0,0 0,0 0,0 0,0 2,-2 2,-2 0,0 0,1 0,0 0,0 0,0 0,-1zm-5 12l0 0c0,0 1,0 1,0 0,0 0,0 0,0 0,0 0,0 0,0 0,0 0,0 0,0 0,0 1,1 1,1 0,0 0,0 1,1 0,0 0,0 1,1 0,0 1,1 1,1 0,0 1,0 1,0 1,0 2,1 4,1 2,0 4,0 5,-1l1 -1c0,0 1,-1 1,-1l1 -1c1,-1 2,-3 2,-4 0,-1 0,-3 0,-4 0,-1 -1,-3 -2,-4 0,-1 -1,-1 -2,-2 -3,-3 -8,-3 -11,-1 0,0 -1,1 -2,1 0,0 0,0 -1,1 -1,1 -1,1 -2,2 -1,2 -1,4 -1,7 0,0 1,2 1,2z"/>
  <path class="fil3" d="M7 2c0,1 0,1 1,2 0,0 0,0 1,1 0,0 1,0 1,0 0,0 0,0 0,0 0,-1 -1,0 -1,-1 0,0 -1,-1 -1,-2 1,-2 5,-2 6,0 0,1 -1,2 -1,2 0,0 -1,0 -1,1 0,0 0,0 1,0 0,0 1,0 1,-1 0,0 1,-1 1,-2 -1,-2 -4,-3 -6,-1 0,0 0,0 -1,1 0,0 0,0 0,0z"/>
  <path class="fil3" d="M11 4c0,0 0,0 -1,0l-2 0c0,0 -1,0 -1,0 0,0 1,0 1,1 0,0 0,0 -1,1 0,1 0,0 1,0 1,0 1,0 1,0 0,0 -1,0 -1,-1 0,0 0,0 1,-1z"/>
  <path class="fil3" d="M11 2c0,1 -1,0 -1,0 0,0 0,0 0,0 0,0 -1,0 -1,0 0,0 0,1 0,1 0,0 0,0 1,0l2 0c0,0 1,0 1,0 0,0 0,-1 0,-1 0,0 -1,0 -1,0z"/>
  <path class="fil3" d="M5 5c0,0 0,-1 -1,-1 0,0 -1,0 -1,1 0,0 0,1 1,1 0,0 0,0 1,0 0,0 0,0 0,0z"/>
  <path class="fil3" d="M15 5c0,0 0,0 0,0 0,0 0,0 1,0 1,0 1,0 0,-1 0,0 -1,-1 -1,0 0,0 0,0 0,1z"/>
  <path class="fil3" d="M4 7c0,0 0,0 1,0 0,0 0,0 1,0 0,0 0,0 0,-1 0,0 -1,1 -1,1 0,0 0,0 0,0l0 1z"/>
  <path class="fil3" d="M15 6c0,0 0,0 0,1 0,0 0,0 1,0 0,0 0,0 1,0l0 -1 0 0c0,0 0,0 0,0 0,0 0,0 -1,0z"/>
  <path class="fil3" d="M10 2c0,0 0,0 0,1 0,0 1,0 1,0 0,0 0,0 0,-1 0,0 -1,0 -1,0z"/>
  <path class="fil3" d="M1 20c0,0 0,0 0,0 0,0 0,0 0,0 0,0 0,0 0,0 0,0 0,-1 -1,0l0 0z"/>
  <path class="fil0" d="M5 15c0,2 1,3 3,3 1,0 2,-1 3,-2 0,0 -1,0 -1,0 0,1 -1,1 -1,1 -1,0 -1,-1 -1,-2 0,-1 1,-2 1,-2 1,0 1,0 1,1 0,0 1,0 1,0 0,-1 -1,-2 -2,-2 -1,0 -3,1 -3,3z"/>
  <path class="fil1" d="M15 12c0,0 -1,0 -1,0l0 2 -2 0 0 -2c0,0 -1,0 -1,0l0 6c0,0 1,0 1,0l0 -2 2 0 0 2c0,0 1,0 1,0l0 -6z"/>
 </g>
</svg>
